<svg xmlns="http://www.w3.org/2000/svg" viewBox="0 0 512 512">
  <defs>
    <linearGradient id="grad" x1="0%" y1="0%" x2="100%" y2="100%">
      <stop offset="0%" style="stop-color:#3b82f6;stop-opacity:1" />
      <stop offset="100%" style="stop-color:#8b5cf6;stop-opacity:1" />
    </linearGradient>
  </defs>
  <rect width="512" height="512" rx="100" fill="url(#grad)"/>
  <g fill="white">
    <path d="M256 120c-75 0-136 61-136 136s61 136 136 136 136-61 136-136-61-136-136-136zm0 240c-57.4 0-104-46.6-104-104s46.6-104 104-104 104 46.6 104 104-46.6 104-104 104z"/>
    <circle cx="256" cy="256" r="40"/>
    <path d="M256 160v32M256 320v32M160 256h32M320 256h32" stroke="white" stroke-width="24" stroke-linecap="round"/>
  </g>
  <text x="256" y="420" text-anchor="middle" fill="white" font-family="Arial, sans-serif" font-size="64" font-weight="bold">COF</text>
</svg>
